<?xml version="1.0" encoding="UTF-8" standalone="no"?>
<!-- Created with Inkscape (http://www.inkscape.org/) -->
<svg
   xmlns:svg="http://www.w3.org/2000/svg"
   xmlns="http://www.w3.org/2000/svg"
   width="840"
   height="840"
   viewBox="0 0 840 840" 
   id="svg2"
   version="1.1"
   >
  <g>
     id="layer1"
     style="display:inline">
    <rect
       style="opacity:1;color:#000000;fill:#ff0000;fill-opacity:0;fill-rule:nonzero;stroke:#000000;stroke-width:37.5;stroke-linecap:round;stroke-linejoin:round;marker:none;marker-start:none;marker-mid:none;marker-end:none;stroke-miterlimit:4;stroke-dasharray:none;stroke-dashoffset:0;stroke-opacity:1;visibility:visible;display:inline;overflow:visible"
       id="rect1307"
       width="641.42859"
       height="641.42859"
       x="181.42857"
       y="152.85715"
       ry="87.14286" />
  </g>
  <g id="layer4" style="display:inline">
    <path
       style="opacity:0.26162792;color:#000000;fill:#ffffff;fill-opacity:1;fill-rule:nonzero;stroke:none;stroke-width:31;stroke-linecap:round;stroke-linejoin:round;marker:none;marker-start:none;marker-mid:none;marker-end:none;stroke-miterlimit:4;stroke-dashoffset:0;stroke-opacity:1;visibility:visible;display:inline;overflow:visible"
       d="M 267.21875 171.59375 C 246.12832 171.98458 227.60875 181.59879 215.40625 196.625 C 222.89458 202.71289 235.11346 210.82454 247.125 224.6875 C 272.31106 253.75562 265.08418 255.49947 284.0625 270.96875 C 299.79578 251.39966 336.82115 249.65324 363.90625 249.3125 C 364.28225 249.30777 364.65408 249.3125 365.03125 249.3125 L 639.25 249.3125 C 687.52723 249.3125 726.40625 288.19153 726.40625 336.46875 C 726.40625 336.46875 732.93897 416.91345 731.375 500.34375 C 729.81105 583.77405 734.45062 663.0594 717.09375 689.96875 C 725.88793 711.84594 726.83937 695.99483 751.03125 720.0625 C 766.32203 735.27474 777.54505 745.18013 788.84375 750.5625 C 798.39941 738.81827 804.09375 723.74197 804.09375 707.15625 L 804.09375 240 C 804.09375 201.78602 773.93273 171.59375 735.71875 171.59375 L 268.5625 171.59375 C 268.11468 171.59375 267.66432 171.58549 267.21875 171.59375 z "
       id="path14857" />
    <path
       style="opacity:0.26162792;color:#000000;fill:#000000;fill-opacity:1;fill-rule:nonzero;stroke:none;stroke-width:31;stroke-linecap:round;stroke-linejoin:round;marker:none;marker-start:none;marker-mid:none;marker-end:none;stroke-miterlimit:4;stroke-dashoffset:0;stroke-opacity:1;visibility:visible;display:inline;overflow:visible"
       d="M 215.78125 196.125 C 205.99857 207.9411 200.1875 223.19765 200.1875 240 L 200.1875 707.15625 C 200.1875 745.37021 230.34852 775.53123 268.5625 775.53125 L 735.71875 775.53125 C 757.30513 775.53125 776.31908 765.91955 788.78125 750.65625 C 763.04086 726.42881 730.67175 690.40781 722.78125 698.53125 C 703.41377 697.46099 660.45927 697.8125 639.25 697.8125 L 365.03125 697.8125 C 316.75402 697.81248 277.875 658.96472 277.875 610.6875 L 275.84375 308.1875 C 275.84375 287.45631 289.8102 260.14748 245.40625 220.34375 C 234.33525 209.2072 224.29036 201.24352 215.8125 196.125 C 215.80826 196.13012 215.78549 196.11988 215.78125 196.125 z "
       id="path14855" />
  </g>
</svg>
