<?xml version="1.0" encoding="UTF-8" standalone="no"?>
<!-- Created with Inkscape (http://www.inkscape.org/) -->
<svg xmlns:dc="http://purl.org/dc/elements/1.1/" xmlns:cc="http://creativecommons.org/ns#" xmlns:rdf="http://www.w3.org/1999/02/22-rdf-syntax-ns#" xmlns:svg="http://www.w3.org/2000/svg" xmlns="http://www.w3.org/2000/svg" xmlns:xlink="http://www.w3.org/1999/xlink" version="1.1" 
  width="18.009911" height="18.029657" viewBox = "0 0 18.009911 18.009911" id="svg6571">

  <defs id="defs6573">
    <linearGradient x1="270.17175" y1="95.677536" x2="275.45453" y2="103.55601" id="linearGradient11335" xlink:href="#linearGradient800" gradientUnits="userSpaceOnUse"/>
    <linearGradient id="linearGradient800">
      <stop id="stop998" style="stop-color:#f3ff49;stop-opacity:1" offset="0"/>
      <stop id="stop999" style="stop-color:#ffa01e;stop-opacity:1" offset="1"/>
    </linearGradient>
    <linearGradient x1="270.17175" y1="95.677536" x2="275.45453" y2="103.55601" id="linearGradient11359" xlink:href="#linearGradient3480-2" gradientUnits="userSpaceOnUse"/>
    <linearGradient id="linearGradient3480-2">
      <stop id="stop3482-7" style="stop-color:#646464;stop-opacity:1" offset="0"/>
      <stop id="stop3484-9" style="stop-color:#000000;stop-opacity:1" offset="1"/>
    </linearGradient>
    <radialGradient cx="269.96768" cy="95.723427" r="7.5203147" fx="269.96768" fy="95.723427" id="radialGradient11343" xlink:href="#linearGradient10585" gradientUnits="userSpaceOnUse" gradientTransform="matrix(1,0,0,1.033243,0,-3.241221)"/>
    <linearGradient id="linearGradient10585">
      <stop id="stop10587" style="stop-color:#d7d7d7;stop-opacity:1" offset="0"/>
      <stop id="stop10595" style="stop-color:#000000;stop-opacity:1" offset="1"/>
    </linearGradient>
    <linearGradient x1="271.21255" y1="90" x2="276.82553" y2="93.16346" id="linearGradient11367" xlink:href="#linearGradient3480-2" gradientUnits="userSpaceOnUse" gradientTransform="matrix(1,0,0,0.940296,0,5.373155)"/>
    <linearGradient id="linearGradient1887-42">
      <stop id="stop1888-7" style="stop-color:#fffdf8;stop-opacity:1" offset="0"/>
      <stop id="stop1889-7" style="stop-color:#cdccc7;stop-opacity:1" offset="1"/>
    </linearGradient>
    <linearGradient id="linearGradient3480-31">
      <stop id="stop3482-9" style="stop-color:#646464;stop-opacity:1" offset="0"/>
      <stop id="stop3484-8" style="stop-color:#000000;stop-opacity:1" offset="1"/>
    </linearGradient>
    <linearGradient x1="163.85936" y1="209.14064" x2="173.72397" y2="218.54164" id="linearGradient6864" xlink:href="#linearGradient1887-42" gradientUnits="userSpaceOnUse" gradientTransform="matrix(1.102855,0,0,1.148517,-167.5042,-41.73143)"/>
    <linearGradient x1="161.28645" y1="207.75523" x2="173.03127" y2="217.25519" id="linearGradient6866" xlink:href="#linearGradient3480-31" gradientUnits="userSpaceOnUse" gradientTransform="matrix(1.102855,0,0,1.148517,-168.0557,-42.30568)"/>
    <linearGradient x1="160" y1="213" x2="176" y2="213" id="linearGradient6868" xlink:href="#linearGradient3480-31" gradientUnits="userSpaceOnUse" gradientTransform="translate(-150.459,-11.45)"/>
    <linearGradient x1="163.85936" y1="209.14064" x2="173.72397" y2="218.54164" id="linearGradient6878" xlink:href="#linearGradient1887-42" gradientUnits="userSpaceOnUse" gradientTransform="matrix(1.102855,0,0,1.148517,-167.5042,-41.73143)"/>
    <linearGradient x1="161.28645" y1="207.75523" x2="173.03127" y2="217.25519" id="linearGradient6880" xlink:href="#linearGradient3480-31" gradientUnits="userSpaceOnUse" gradientTransform="matrix(1.102855,0,0,1.148517,-168.0557,-42.30568)"/>
    <linearGradient x1="160" y1="213" x2="176" y2="213" id="linearGradient6882" xlink:href="#linearGradient3480-31" gradientUnits="userSpaceOnUse" gradientTransform="translate(-150.459,-11.45)"/>
    <linearGradient x1="163.85936" y1="209.14064" x2="173.72397" y2="218.54164" id="linearGradient6892" xlink:href="#linearGradient1887-42" gradientUnits="userSpaceOnUse" gradientTransform="matrix(1.102855,0,0,1.148517,-167.5042,-41.73143)"/>
    <linearGradient x1="161.28645" y1="207.75523" x2="173.03127" y2="217.25519" id="linearGradient6894" xlink:href="#linearGradient3480-31" gradientUnits="userSpaceOnUse" gradientTransform="matrix(1.102855,0,0,1.148517,-168.0557,-42.30568)"/>
    <linearGradient x1="160" y1="213" x2="176" y2="213" id="linearGradient6896" xlink:href="#linearGradient3480-31" gradientUnits="userSpaceOnUse" gradientTransform="translate(-150.459,-11.45)"/>
    <linearGradient x1="163.85936" y1="209.14064" x2="173.72397" y2="218.54164" id="linearGradient7355" xlink:href="#linearGradient1887-42" gradientUnits="userSpaceOnUse" gradientTransform="matrix(1.102855,0,0,1.148517,-167.5042,-41.73143)"/>
    <linearGradient x1="161.28645" y1="207.75523" x2="173.03127" y2="217.25519" id="linearGradient7357" xlink:href="#linearGradient3480-31" gradientUnits="userSpaceOnUse" gradientTransform="matrix(1.102855,0,0,1.148517,-168.0557,-42.30568)"/>
    <linearGradient x1="160" y1="213" x2="176" y2="213" id="linearGradient7359" xlink:href="#linearGradient3480-31" gradientUnits="userSpaceOnUse" gradientTransform="translate(-150.459,-11.45)"/>
  </defs>
  <metadata id="metadata6576">
    <rdf:RDF>
      <cc:Work rdf:about="">
        <dc:format>image/svg+xml</dc:format>
        <dc:type rdf:resource="http://purl.org/dc/dcmitype/StillImage"/>
        <dc:title/>
      </cc:Work>
    </rdf:RDF>
  </metadata>
  <g transform="translate(-8.9900902,-63.982842)" id="layer1">
    <g id="document-export">
      <g transform="translate(0.959089,-131.05)" id="use5582">
        <path d="m 9.54091,196.55 7,0 4,4 0,11 -11,0 0,-15 z" id="path6872" style="color:#000000;fill:url(#linearGradient6878);fill-opacity:1;fill-rule:evenodd;stroke:url(#linearGradient6880);stroke-width:1.00000107;stroke-linecap:square;stroke-linejoin:round;stroke-miterlimit:4;stroke-opacity:1;stroke-dashoffset:0;marker:none;display:inline"/>
        <path d="m 16.54091,196.55 4,4 -4,0 0,-4 z" id="path6874" style="fill:#ffffff;fill-opacity:1;fill-rule:evenodd;stroke:url(#linearGradient6882);stroke-width:1px;stroke-linecap:round;stroke-linejoin:round;stroke-opacity:1"/>
        <path d="m 10.54091,210.55 9,0 0,-9" id="path6876" style="fill:none;stroke:#c8c8c8;stroke-width:1px;stroke-linecap:square;stroke-linejoin:miter;stroke-opacity:1"/>
      </g>
      <path d="m 16,73 7,0 0,-2 3,2.5 -3,2.5 0,-2 -7,0 0,-1 z" id="use5585" style="fill:#000000;fill-opacity:1;fill-rule:evenodd;stroke:none;display:inline"/>
    </g>
    <g transform="translate(0.959089,-131.05)" id="use5582-3">
      <path d="m 9.54091,196.55 7,0 4,4 0,11 -11,0 0,-15 z" id="path6886" style="color:#000000;fill:url(#linearGradient7355);fill-opacity:1;fill-rule:evenodd;stroke:url(#linearGradient7357);stroke-width:1.00000107;stroke-linecap:square;stroke-linejoin:round;stroke-miterlimit:4;stroke-opacity:1;stroke-dashoffset:0;marker:none;display:inline"/>
      <path d="m 16.54091,196.55 4,4 -4,0 0,-4 z" id="path6888" style="fill:#ffffff;fill-opacity:1;fill-rule:evenodd;stroke:url(#linearGradient7359);stroke-width:1px;stroke-linecap:round;stroke-linejoin:round;stroke-opacity:1"/>
      <path d="m 10.54091,210.55 9,0 0,-9" id="path6890" style="fill:none;stroke:#c8c8c8;stroke-width:1px;stroke-linecap:square;stroke-linejoin:miter;stroke-opacity:1"/>
    </g>
    <path d="m 16,73 7,0 0,-2 3,2.5 -3,2.5 0,-2 -7,0 0,-1 z" id="use5585-8" style="fill:#000000;fill-opacity:1;fill-rule:evenodd;stroke:none;display:inline"/>
    <g id="document-export-0">
      <use transform="translate(0.959089,-131.05)" id="use5582-9" x="0" y="0" width="1250" height="1250" xlink:href="#g5577"/>
      <use transform="translate(10.95909,-131.05)" id="use5585-0" x="0" y="0" width="1250" height="1250" xlink:href="#path4685"/>
    </g>
    <g id="document-export-8">
      <use transform="translate(0.959089,-131.05)" id="use5582-4" x="0" y="0" width="1250" height="1250" xlink:href="#g5577"/>
      <use transform="translate(10.95909,-131.05)" id="use5585-9" x="0" y="0" width="1250" height="1250" xlink:href="#path4685"/>
    </g>
    <g id="document-export-3">
      <use transform="translate(0.959089,-131.05)" id="use5582-6" x="0" y="0" width="1250" height="1250" xlink:href="#g5577"/>
      <use transform="translate(10.95909,-131.05)" id="use5585-1" x="0" y="0" width="1250" height="1250" xlink:href="#path4685"/>
    </g>
    <g id="document-export-12">
      <use transform="translate(0.959089,-131.05)" id="use5582-0" x="0" y="0" width="1250" height="1250" xlink:href="#g5577"/>
      <use transform="translate(10.95909,-131.05)" id="use5585-01" x="0" y="0" width="1250" height="1250" xlink:href="#path4685"/>
    </g>
    <g id="document-export-6">
      <use transform="translate(0.959089,-131.05)" id="use5582-60" x="0" y="0" width="1250" height="1250" xlink:href="#g5577"/>
      <use transform="translate(10.95909,-131.05)" id="use5585-3" x="0" y="0" width="1250" height="1250" xlink:href="#path4685"/>
    </g>
    <g id="document-export-4">
      <use transform="translate(0.959089,-131.05)" id="use5582-06" x="0" y="0" width="1250" height="1250" xlink:href="#g5577"/>
      <use transform="translate(10.95909,-131.05)" id="use5585-18" x="0" y="0" width="1250" height="1250" xlink:href="#path4685"/>
    </g>
    <g id="document-export-37">
      <use transform="translate(0.959089,-131.05)" id="use5582-1" x="0" y="0" width="1250" height="1250" xlink:href="#g5577"/>
      <use transform="translate(10.95909,-131.05)" id="use5585-07" x="0" y="0" width="1250" height="1250" xlink:href="#path4685"/>
    </g>
    <g id="document-export-5">
      <use transform="translate(0.959089,-131.05)" id="use5582-33" x="0" y="0" width="1250" height="1250" xlink:href="#g5577"/>
      <use transform="translate(10.95909,-131.05)" id="use5585-37" x="0" y="0" width="1250" height="1250" xlink:href="#path4685"/>
    </g>
    <g id="document-export-07">
      <use transform="translate(0.959089,-131.05)" id="use5582-8" x="0" y="0" width="1250" height="1250" xlink:href="#g5577"/>
      <use transform="translate(10.95909,-131.05)" id="use5585-15" x="0" y="0" width="1250" height="1250" xlink:href="#path4685"/>
    </g>
    <g id="document-export-82">
      <use transform="translate(0.959089,-131.05)" id="use5582-11" x="0" y="0" width="1250" height="1250" xlink:href="#g5577"/>
      <use transform="translate(10.95909,-131.05)" id="use5585-97" x="0" y="0" width="1250" height="1250" xlink:href="#path4685"/>
    </g>
    <g id="document-export-7">
      <use transform="translate(0.959089,-131.05)" id="use5582-7" x="0" y="0" width="1250" height="1250" xlink:href="#g5577"/>
      <use transform="translate(10.95909,-131.05)" id="use5585-2" x="0" y="0" width="1250" height="1250" xlink:href="#path4685"/>
    </g>
    <g id="document-export-9">
      <use transform="translate(0.959089,-131.05)" id="use5582-67" x="0" y="0" width="1250" height="1250" xlink:href="#g5577"/>
      <use transform="translate(10.95909,-131.05)" id="use5585-99" x="0" y="0" width="1250" height="1250" xlink:href="#path4685"/>
    </g>
  </g>
</svg>